# xmcd CD database file
#
# Track frame offsets:
#	150
#	23762
#	43782
#	61730
#	84268
#	105626
#	124109
#	146354
#
# Disc length: 2263 seconds
#
# Revision: 0
# Processed by: cddbd v1.4PL0 Copyright (c) Steve Scherf et al.
# Submitted via: Feurio! 1.66 - http://www.feurio.com
#
DISCID=5d08d508
DTITLE=Flay - Com Doçura
DYEAR=1900
DGENRE=Africana
TTITLE0=Doçura e Loucura
TTITLE1=Ai menina Louca
TTITLE2=N'dumbo Uami
TTITLE3=Escravo da Canção
TTITLE4=Ai Mangalita
TTITLE5=N'dissocolola
TTITLE6=Miguelito das Doze
TTITLE7=Doçura e Loucura (instrumental)
EXTD=ProduMédia Sanumbila - Beto Bumbu
EXTT0=
EXTT1=
EXTT2=
EXTT3=
EXTT4=
EXTT5=
EXTT6=
EXTT7=
PLAYORDER=
